# Blender v2.91.0 OBJ File: 'wheel.blend'
# www.blender.org
o whell.002_car2.020
v 0.001621 0.280633 0.176261
v -0.215611 -0.000818 -0.146376
v 0.202317 -0.083949 -0.146376
v -0.199075 0.082313 -0.146376
v 0.155227 -0.154424 -0.146376
v -0.151985 0.152789 -0.146376
v 0.084752 -0.201514 -0.146376
v -0.081510 0.199879 -0.146376
v 0.001621 0.216414 -0.146376
v 0.001621 -0.218050 -0.146376
v 0.084752 0.199879 -0.146376
v -0.081510 -0.201514 -0.146376
v 0.155227 0.152789 -0.146376
v -0.151985 -0.154424 -0.146376
v -0.199075 -0.083949 -0.146376
v 0.202317 0.082313 -0.146376
v 0.218853 -0.000818 -0.146376
v 0.118513 0.281386 -0.148151
v 0.110160 0.261219 -0.169560
v 0.217610 0.215172 -0.148151
v 0.202175 0.199736 -0.169560
v 0.283824 0.116075 -0.148151
v 0.263657 0.107721 -0.169560
v 0.307076 -0.000818 -0.148151
v 0.285247 -0.000818 -0.169560
v 0.283824 -0.117710 -0.148151
v 0.263658 -0.109357 -0.169560
v 0.217610 -0.216807 -0.148151
v 0.202175 -0.201372 -0.169560
v 0.118513 -0.283021 -0.148151
v 0.110160 -0.262854 -0.169560
v 0.001621 -0.306272 -0.148151
v 0.001621 -0.284444 -0.169560
v -0.115271 -0.283021 -0.148151
v -0.106918 -0.262854 -0.169560
v -0.214368 -0.216807 -0.148151
v -0.198933 -0.201372 -0.169560
v -0.280582 -0.117710 -0.148151
v -0.260415 -0.109357 -0.169560
v -0.303834 -0.000818 -0.148151
v -0.282005 -0.000818 -0.169560
v -0.280582 0.116075 -0.148151
v -0.260415 0.107721 -0.169560
v -0.214368 0.215171 -0.148151
v -0.198933 0.199736 -0.169560
v 0.001621 0.282808 -0.169560
v 0.001621 0.304637 -0.148151
v -0.115271 0.281386 -0.148151
v -0.106918 0.261219 -0.169560
v 0.015233 0.032044 -0.138987
v 0.026773 0.024334 -0.138987
v 0.034483 0.012794 -0.138987
v 0.037191 -0.000818 -0.138987
v 0.034483 -0.014430 -0.138987
v 0.026773 -0.025969 -0.138987
v 0.015233 -0.033680 -0.138987
v 0.001621 -0.036387 -0.138987
v -0.011991 -0.033680 -0.138987
v -0.023530 -0.025969 -0.138987
v -0.031241 -0.014430 -0.138987
v -0.033949 -0.000818 -0.138987
v -0.031241 0.012794 -0.138987
v -0.023530 0.024334 -0.138987
v -0.011991 0.032044 -0.138987
v 0.001621 0.034752 -0.138987
v 0.026254 0.058650 -0.125657
v 0.047136 0.044697 -0.125657
v 0.061089 0.023815 -0.125657
v 0.065989 -0.000818 -0.125657
v 0.061089 -0.025450 -0.125657
v 0.047136 -0.046333 -0.125657
v 0.026254 -0.060286 -0.125657
v 0.001621 -0.065186 -0.125657
v -0.023011 -0.060286 -0.125657
v -0.043894 -0.046333 -0.125657
v -0.057847 -0.025450 -0.125657
v -0.062747 -0.000818 -0.125657
v -0.057847 0.023815 -0.125657
v -0.043894 0.044697 -0.125657
v -0.023011 0.058650 -0.125657
v 0.001621 0.063550 -0.125657
v 0.039401 0.090392 -0.131518
v 0.071430 0.068991 -0.131518
v 0.092831 0.036963 -0.131518
v 0.100346 -0.000818 -0.131518
v 0.092831 -0.038598 -0.131518
v 0.071430 -0.070627 -0.131518
v 0.039401 -0.092028 -0.131518
v 0.001621 -0.099543 -0.131518
v -0.036159 -0.092028 -0.131518
v -0.068188 -0.070627 -0.131518
v -0.089589 -0.038598 -0.131518
v -0.097104 -0.000818 -0.131518
v -0.089589 0.036963 -0.131518
v -0.068188 0.068991 -0.131518
v -0.036159 0.090392 -0.131518
v 0.001621 0.097907 -0.131518
v 0.061062 0.142687 -0.090683
v 0.111455 0.109016 -0.090683
v 0.145126 0.058624 -0.090683
v 0.156949 -0.000818 -0.090683
v 0.145126 -0.060259 -0.090683
v 0.111455 -0.110651 -0.090683
v 0.061062 -0.144322 -0.090683
v 0.001621 -0.156146 -0.090683
v -0.057820 -0.144322 -0.090683
v -0.108213 -0.110651 -0.090683
v -0.141883 -0.060259 -0.090683
v -0.153707 -0.000818 -0.090683
v -0.141883 0.058624 -0.090683
v -0.108213 0.109016 -0.090683
v -0.057820 0.142687 -0.090683
v 0.001621 0.154511 -0.090683
v 0.087440 0.206369 -0.169560
v 0.118513 0.281386 0.135925
v 0.160194 0.157756 -0.169560
v 0.217610 0.215171 0.135925
v 0.208807 0.085002 -0.169560
v 0.283824 0.116075 0.135925
v 0.225878 -0.000818 -0.169560
v 0.307076 -0.000818 0.135925
v 0.208807 -0.086637 -0.169560
v 0.283824 -0.117710 0.135925
v 0.160195 -0.159391 -0.169560
v 0.217610 -0.216807 0.135925
v 0.087440 -0.208004 -0.169560
v 0.118513 -0.283021 0.135925
v 0.001621 -0.225074 -0.169560
v 0.001621 -0.306272 0.135925
v -0.084198 -0.208004 -0.169560
v -0.115271 -0.283021 0.135925
v -0.156952 -0.159391 -0.169560
v -0.214368 -0.216807 0.135925
v -0.205565 -0.086637 -0.169560
v -0.280582 -0.117710 0.135925
v -0.222636 -0.000818 -0.169560
v -0.303834 -0.000818 0.135925
v -0.205565 0.085002 -0.169560
v -0.280582 0.116075 0.135925
v -0.156952 0.157756 -0.169560
v -0.214368 0.215171 0.135925
v -0.084198 0.206369 -0.169560
v -0.115271 0.281386 0.135925
v 0.001621 0.223439 -0.169560
v -0.106085 0.259208 0.176261
v 0.001621 0.304637 0.135925
v -0.197394 0.198198 0.176261
v -0.258405 0.106889 0.176261
v -0.279829 -0.000818 0.176261
v -0.258405 -0.108524 0.176261
v -0.197394 -0.199833 0.176261
v -0.106085 -0.260844 0.176261
v 0.001621 -0.282268 0.176261
v 0.109327 -0.260844 0.176261
v 0.200637 -0.199833 0.176261
v 0.261647 -0.108524 0.176261
v 0.283071 -0.000818 0.176261
v 0.261647 0.106889 0.176261
v 0.200636 0.198198 0.176261
v 0.109327 0.259209 0.176261
v 0.001621 -0.000818 0.176261
vt 0.080203 0.150888
vt 0.080748 0.149341
vt 0.080758 0.150898
vt 0.051801 0.152601
vt 0.051202 0.151420
vt 0.051774 0.151171
vt 0.051810 0.154297
vt 0.051227 0.155870
vt 0.051235 0.154301
vt 0.936748 0.323397
vt 0.936439 0.322188
vt 0.936759 0.322149
vt 0.937019 0.302672
vt 0.937386 0.301698
vt 0.937348 0.302712
vt 0.886261 0.322678
vt 0.885932 0.323928
vt 0.885938 0.322716
vt 0.936792 0.325702
vt 0.936439 0.324606
vt 0.936759 0.324645
vt 0.065894 0.141179
vt 0.067111 0.140083
vt 0.067101 0.140946
vt 0.076220 0.150888
vt 0.075900 0.149328
vt 0.076208 0.149199
vt 0.039167 0.150789
vt 0.038834 0.149202
vt 0.039150 0.149084
vt 0.063084 0.145847
vt 0.063084 0.144156
vt 0.063369 0.145737
vt 0.065471 0.140075
vt 0.065584 0.140378
vt 0.033803 0.149770
vt 0.033403 0.150040
vt 0.033477 0.149630
vt 0.034187 0.150366
vt 0.033721 0.150260
vt 0.034052 0.150028
vt 0.032416 0.150366
vt 0.032891 0.150260
vt 0.032817 0.150446
vt 0.033714 0.152766
vt 0.034073 0.151741
vt 0.034499 0.152428
vt 0.033795 0.150446
vt 0.033721 0.150835
vt 0.033029 0.150977
vt 0.080162 0.147785
vt 0.080191 0.149199
vt 0.080167 0.154064
vt 0.080750 0.152472
vt 0.080725 0.153824
vt 0.062133 0.155973
vt 0.062754 0.157166
vt 0.062178 0.157413
vt 0.080194 0.152597
vt 0.936792 0.321091
vt 0.936471 0.321163
vt 0.937005 0.303916
vt 0.937348 0.305130
vt 0.937019 0.305168
vt 0.885957 0.321685
vt 0.886280 0.321613
vt 0.936428 0.323397
vt 0.068750 0.140117
vt 0.069910 0.141326
vt 0.068629 0.140416
vt 0.070056 0.147375
vt 0.070720 0.145829
vt 0.071001 0.145946
vt 0.065375 0.148279
vt 0.064215 0.147085
vt 0.065496 0.147995
vt 0.064070 0.141020
vt 0.063405 0.142582
vt 0.063124 0.142449
vt 0.033125 0.149630
vt 0.033209 0.150040
vt 0.033583 0.150117
vt 0.032551 0.151068
vt 0.032817 0.150648
vt 0.032891 0.150835
vt 0.032800 0.149770
vt 0.032551 0.150028
vt 0.043146 0.150789
vt 0.043676 0.149213
vt 0.043691 0.150784
vt 0.033574 0.151956
vt 0.033125 0.151466
vt 0.033478 0.151466
vt 0.031945 0.150268
vt 0.032416 0.150731
vt 0.031945 0.150828
vt 0.033033 0.151956
vt 0.033029 0.150117
vt 0.034661 0.150828
vt 0.034661 0.150268
vt 0.031478 0.151805
vt 0.032534 0.151741
vt 0.032079 0.152428
vt 0.034052 0.151068
vt 0.034187 0.150731
vt 0.034455 0.151345
vt 0.033803 0.151326
vt 0.031153 0.150110
vt 0.031153 0.150991
vt 0.035426 0.150991
vt 0.035425 0.150110
vt 0.033573 0.149140
vt 0.033033 0.149140
vt 0.035100 0.151805
vt 0.032152 0.151345
vt 0.032800 0.151326
vt 0.936571 0.287882
vt 0.937402 0.286829
vt 0.937402 0.287710
vt 0.032152 0.149750
vt 0.032079 0.148673
vt 0.031478 0.149296
vt 0.034072 0.149354
vt 0.032534 0.149354
vt 0.034454 0.149750
vt 0.032864 0.148336
vt 0.034499 0.148673
vt 0.033714 0.148336
vt 0.035100 0.149296
vt 0.055784 0.152601
vt 0.940153 0.290363
vt 0.940749 0.289147
vt 0.941251 0.289892
vt 0.940152 0.284168
vt 0.939114 0.285054
vt 0.938964 0.284168
vt 0.937026 0.289020
vt 0.937728 0.288524
vt 0.938964 0.290363
vt 0.939964 0.289484
vt 0.942546 0.287882
vt 0.941675 0.286829
vt 0.942546 0.286649
vt 0.940749 0.285391
vt 0.939964 0.285054
vt 0.937025 0.285511
vt 0.936570 0.286649
vt 0.937866 0.289892
vt 0.939114 0.289484
vt 0.941350 0.288524
vt 0.941675 0.287710
vt 0.942091 0.285511
vt 0.941251 0.284639
vt 0.938329 0.285391
vt 0.937728 0.286015
vt 0.938329 0.289147
vt 0.942092 0.289020
vt 0.941350 0.286015
vt 0.032864 0.152766
vt 0.068301 0.141209
vt 0.043129 0.149084
vt 0.039098 0.147630
vt 0.043077 0.147630
vt 0.055785 0.156000
vt 0.051802 0.156000
vt 0.043628 0.147873
vt 0.039147 0.152483
vt 0.043126 0.152483
vt 0.058197 0.157413
vt 0.055757 0.151171
vt 0.043072 0.153910
vt 0.076179 0.147785
vt 0.058152 0.152573
vt 0.062177 0.151132
vt 0.062133 0.152573
vt 0.058137 0.154273
vt 0.062117 0.154273
vt 0.058152 0.155973
vt 0.076184 0.154064
vt 0.937866 0.284639
vt 0.069314 0.141929
vt 0.069983 0.142995
vt 0.071041 0.144255
vt 0.070208 0.144245
vt 0.069954 0.145489
vt 0.069260 0.146538
vt 0.069842 0.147156
vt 0.068231 0.147232
vt 0.068541 0.148033
vt 0.067025 0.147465
vt 0.067014 0.148328
vt 0.065824 0.147202
vt 0.064811 0.146482
vt 0.064142 0.145416
vt 0.063917 0.144166
vt 0.064171 0.142922
vt 0.064865 0.141873
vt 0.064283 0.141255
vt 0.051776 0.157451
vt 0.070757 0.142674
vt 0.937335 0.303917
vt 0.033403 0.151054
vt 0.886261 0.325174
vt 0.885957 0.326151
vt 0.885938 0.325134
vt 0.051203 0.157207
vt 0.063996 0.147299
vt 0.043673 0.152345
vt 0.068655 0.148320
vt 0.062713 0.152707
vt 0.062698 0.154273
vt 0.070129 0.141096
vt 0.033583 0.150977
vt 0.937857 0.321897
vt 0.938192 0.323096
vt 0.937864 0.323137
vt 0.937885 0.319565
vt 0.938192 0.320679
vt 0.937864 0.320642
vt 0.938185 0.321894
vt 0.937386 0.306164
vt 0.937057 0.306236
vt 0.033209 0.151054
vt 0.886254 0.323929
vt 0.938212 0.324101
vt 0.937885 0.324175
vt 0.062778 0.144144
vt 0.051226 0.152738
vt 0.038850 0.150784
vt 0.043624 0.153659
vt 0.075902 0.152484
vt 0.075910 0.150897
vt 0.062713 0.155839
vt 0.033795 0.150648
vt 0.067114 0.139758
vt 0.068805 0.110336
vt 0.069394 0.108860
vt 0.072674 0.111134
vt 0.075954 0.113407
vt 0.074866 0.114536
vt 0.070483 0.107731
vt 0.073444 0.115147
vt 0.071905 0.107120
vt 0.071905 0.115148
vt 0.073444 0.107120
vt 0.074866 0.107731
vt 0.070483 0.114537
vt 0.075954 0.108860
vt 0.069394 0.113408
vt 0.076543 0.110335
vt 0.068805 0.111932
vt 0.076543 0.111932
vt 0.937057 0.301625
vt 0.936471 0.325630
vt 0.080721 0.148039
vt 0.055794 0.154297
vt 0.039093 0.153910
vt 0.058197 0.151132
vt 0.076211 0.152597
vt 0.055759 0.157451
vt 0.886280 0.326224
vt 0.062754 0.151378
vt 0.071041 0.142548
vt 0.938212 0.319636
vt 0.038831 0.152358
vn 0.8593 -0.0000 0.5114
vn 0.7939 0.3289 0.5114
vn 0.3289 0.7939 0.5114
vn 0.6076 0.6076 0.5114
vn -0.0000 0.8593 0.5114
vn -0.3289 0.7939 0.5114
vn -0.9570 -0.0000 -0.2900
vn -0.8842 -0.3662 -0.2900
vn -0.3662 -0.8842 -0.2900
vn -0.6767 -0.6767 -0.2900
vn -0.3662 0.8842 -0.2900
vn 0.0000 0.9570 -0.2900
vn -0.6767 0.6767 -0.2900
vn -0.8842 0.3662 -0.2900
vn -0.0000 -0.0000 -1.0000
vn 0.7002 0.0000 -0.7139
vn 0.6469 0.2680 -0.7139
vn -0.0000 -0.7002 -0.7139
vn 0.2680 -0.6469 -0.7139
vn -0.6469 -0.2680 -0.7139
vn -0.7002 0.0000 -0.7139
vn -0.2680 0.6469 -0.7139
vn -0.0000 0.7002 -0.7139
vn 0.2970 -0.2970 -0.9075
vn 0.2221 -0.0920 -0.9707
vn 0.3881 -0.1607 -0.9075
vn -0.0000 -0.4201 -0.9075
vn 0.0920 -0.2221 -0.9707
vn 0.1607 -0.3881 -0.9075
vn 0.1607 0.3881 -0.9075
vn 0.1700 0.1700 -0.9707
vn 0.0920 0.2221 -0.9707
vn -0.5851 0.0000 -0.8110
vn -0.5405 -0.2239 -0.8110
vn -0.0000 -0.2404 -0.9707
vn -0.1700 -0.1700 -0.9707
vn -0.1700 0.1700 -0.9707
vn 0.6076 -0.6076 0.5114
vn 0.7939 -0.3289 0.5114
vn -0.7939 0.3289 0.5114
vn -0.6076 0.6076 0.5114
vn 0.0000 -0.9570 -0.2900
vn 0.3662 -0.8842 -0.2900
vn 0.2680 0.6469 -0.7139
vn 0.4951 0.4951 -0.7139
vn 0.4951 -0.4951 -0.7139
vn 0.6469 -0.2680 -0.7139
vn -0.2680 -0.6469 -0.7139
vn -0.4951 -0.4951 -0.7139
vn -0.4951 0.4951 -0.7139
vn -0.6469 0.2680 -0.7139
vn 0.4201 0.0000 -0.9075
vn 0.2404 0.0000 -0.9707
vn 0.1700 -0.1700 -0.9707
vn -0.1607 0.3881 -0.9075
vn 0.0000 0.2404 -0.9707
vn -0.0920 0.2221 -0.9707
vn 0.3881 0.1607 -0.9075
vn 0.2970 0.2970 -0.9075
vn 0.0000 -0.8593 0.5114
vn 0.3289 -0.7939 0.5114
vn 0.1682 -0.0000 -0.9858
vn 0.1554 -0.0644 -0.9858
vn -0.0644 -0.1554 -0.9858
vn 0.0000 -0.1682 -0.9858
vn -0.5405 0.2239 -0.8110
vn 0.2221 0.0920 -0.9707
vn 0.0644 0.1554 -0.9858
vn 0.0000 0.1682 -0.9858
vn -0.2239 0.5405 -0.8110
vn -0.4137 0.4137 -0.8110
vn 0.1189 0.1189 -0.9858
vn 0.1554 0.0644 -0.9858
vn 0.2239 0.5405 -0.8110
vn 0.0000 0.5851 -0.8110
vn -0.2239 -0.5405 -0.8110
vn -0.0000 -0.5851 -0.8110
vn -0.1554 0.0644 -0.9858
vn -0.1682 -0.0000 -0.9858
vn -0.4137 -0.4137 -0.8110
vn 0.1189 -0.1189 -0.9858
vn 0.0644 -0.1554 -0.9858
vn -0.0000 -0.6688 -0.7434
vn -0.2559 -0.6179 -0.7434
vn 0.4137 0.4137 -0.8110
vn -0.1189 0.1189 -0.9858
vn 0.5405 0.2239 -0.8110
vn -0.0644 0.1554 -0.9858
vn 0.5851 0.0000 -0.8110
vn 0.5405 -0.2239 -0.8110
vn 0.4137 -0.4137 -0.8110
vn 0.2239 -0.5405 -0.8110
vn -0.1189 -0.1189 -0.9858
vn -0.1554 -0.0644 -0.9858
vn 0.3827 0.9239 -0.0000
vn -0.0000 1.0000 -0.0000
vn 0.6688 0.0000 -0.7434
vn 0.6179 0.2559 -0.7434
vn -0.6179 0.2559 -0.7434
vn -0.6688 -0.0000 -0.7434
vn 0.2559 -0.6179 -0.7434
vn 0.6179 -0.2559 -0.7434
vn 0.2559 0.6179 -0.7434
vn 0.0000 0.6688 -0.7434
vn -0.4729 0.4729 -0.7434
vn -0.4729 -0.4729 -0.7434
vn 0.4729 -0.4729 -0.7434
vn 0.4729 0.4729 -0.7434
vn -0.2559 0.6179 -0.7434
vn -0.6179 -0.2559 -0.7434
vn 0.3827 -0.9239 0.0000
vn 0.7071 -0.7071 -0.0000
vn -0.3827 0.9239 -0.0000
vn -0.0000 -1.0000 0.0000
vn -0.3827 -0.9239 0.0000
vn -0.7071 0.7071 -0.0000
vn -0.9239 0.3827 -0.0000
vn 0.7071 0.7071 -0.0000
vn -0.7071 -0.7071 0.0000
vn 0.9239 0.3827 -0.0000
vn -0.9239 -0.3827 0.0000
vn 1.0000 0.0000 -0.0000
vn -1.0000 -0.0000 -0.0000
vn 0.9239 -0.3827 -0.0000
vn -0.3881 0.1607 -0.9075
vn -0.2404 0.0000 -0.9707
vn -0.4201 0.0000 -0.9075
vn 0.3662 0.8842 -0.2900
vn 0.6767 0.6767 -0.2900
vn -0.3289 -0.7939 0.5114
vn -0.6076 -0.6076 0.5114
vn -0.7939 -0.3289 0.5114
vn -0.8593 -0.0000 0.5114
vn -0.2970 -0.2970 -0.9075
vn -0.2221 -0.0920 -0.9707
vn 0.9570 -0.0000 -0.2900
vn 0.8842 0.3662 -0.2900
vn -0.1607 -0.3881 -0.9075
vn 0.6767 -0.6767 -0.2900
vn 0.8842 -0.3662 -0.2900
vn -0.2970 0.2970 -0.9075
vn 0.0000 0.4201 -0.9075
vn -0.2221 0.0920 -0.9707
vn -0.3881 -0.1607 -0.9075
vn -0.0920 -0.2221 -0.9707
vn 0.0000 -0.0000 1.0000
s 1
f 121/1/1 158/2/2 157/3/1
f 115/4/3 159/5/4 117/6/4
f 146/7/5 145/8/6 1/9/5
f 120/10/7 16/11/8 118/12/8
f 114/13/9 13/14/10 11/15/9
f 126/16/11 10/17/12 7/18/11
f 124/19/13 3/20/14 122/21/14
f 142/22/15 46/23/15 144/24/15
f 24/25/16 23/26/17 22/27/17
f 32/28/18 31/29/19 30/30/19
f 38/31/20 41/32/21 39/33/20
f 48/34/22 46/23/23 49/35/22
f 71/36/24 54/37/25 70/38/26
f 73/39/27 56/40/28 72/41/29
f 66/42/30 51/43/31 50/44/32
f 109/45/33 92/46/34 108/47/34
f 57/48/35 59/49/36 63/50/37
f 117/51/4 158/2/2 119/52/2
f 125/53/38 156/54/39 155/55/38
f 139/56/40 147/57/41 141/58/41
f 121/1/1 156/54/39 123/59/39
f 116/60/10 16/11/8 13/61/10
f 144/62/42 8/63/43 142/64/43
f 126/16/11 5/65/13 124/66/13
f 122/21/14 17/67/7 120/10/7
f 18/68/44 21/69/45 19/70/44
f 28/71/46 27/72/47 26/73/47
f 34/74/48 37/75/49 35/76/48
f 44/77/50 43/78/51 42/79/51
f 69/80/52 54/37/25 53/81/53
f 72/41/29 55/82/54 71/36/24
f 80/83/55 65/84/56 64/85/57
f 68/86/58 51/43/31 67/87/59
f 129/88/60 154/89/61 153/90/60
f 93/91/62 78/92/63 77/93/62
f 82/94/64 81/95/65 97/96/65
f 109/45/33 94/97/66 93/91/33
f 68/86/58 53/81/53 52/98/67
f 90/99/68 73/39/69 89/100/69
f 112/101/70 95/102/71 111/103/71
f 90/99/68 75/104/72 74/105/68
f 91/106/72 76/107/73 75/104/72
f 98/108/74 97/96/75 113/109/75
f 92/46/73 77/93/62 76/107/73
f 106/110/76 89/100/77 105/111/77
f 86/112/78 69/80/79 85/113/79
f 106/110/76 91/106/80 90/99/76
f 95/102/81 78/92/63 94/97/63
f 107/114/80 92/46/34 91/106/80
f 96/115/82 79/116/81 95/102/81
f 9/117/83 98/118/84 113/119/83
f 98/108/74 83/120/85 82/94/74
f 86/112/78 71/36/86 70/38/78
f 100/121/87 83/120/85 99/122/85
f 87/123/86 72/41/88 71/36/86
f 100/121/87 85/113/89 84/124/87
f 88/125/88 73/39/69 72/41/88
f 101/126/89 86/112/90 85/113/89
f 97/96/65 80/83/82 96/115/82
f 103/127/91 86/112/90 102/128/90
f 104/129/92 87/123/91 103/127/91
f 83/120/93 66/42/64 82/94/64
f 84/124/94 67/87/93 83/120/93
f 104/129/92 89/100/77 88/125/92
f 84/124/94 69/80/79 68/86/94
f 113/109/75 96/115/70 112/101/70
f 18/130/95 146/7/96 115/4/95
f 2/131/97 108/132/98 15/133/98
f 3/134/99 101/135/100 17/136/100
f 8/137/101 113/119/83 112/138/101
f 4/139/102 109/140/97 2/131/97
f 12/141/103 105/142/104 10/143/104
f 3/134/99 103/144/105 102/145/99
f 13/146/106 98/118/84 11/147/84
f 6/148/107 110/149/102 4/139/102
f 12/141/103 107/150/108 106/151/103
f 7/152/109 103/144/105 5/153/105
f 13/146/106 100/154/110 99/155/106
f 6/148/107 112/138/101 111/156/107
f 14/157/108 108/132/98 107/150/108
f 7/152/109 105/142/104 104/158/109
f 111/103/71 94/97/66 110/159/66
f 144/24/15 19/70/15 114/160/15
f 127/161/111 28/162/112 125/163/112
f 146/7/96 48/164/113 143/165/113
f 129/88/114 30/30/111 127/161/111
f 127/161/61 155/166/38 154/89/61
f 34/167/115 129/88/114 131/168/115
f 44/169/116 139/56/117 141/58/116
f 20/170/118 115/4/95 117/6/118
f 133/171/119 34/167/115 131/168/115
f 119/52/120 20/172/118 117/51/118
f 38/173/121 133/174/119 135/175/121
f 24/25/122 119/52/120 121/1/122
f 40/176/123 135/175/121 137/177/123
f 123/59/124 24/25/122 121/1/122
f 42/178/117 137/177/123 139/56/117
f 28/179/112 123/59/124 125/53/112
f 16/180/110 101/135/100 100/154/110
f 114/160/15 21/69/15 116/181/15
f 118/182/15 25/183/15 120/184/15
f 122/185/15 25/183/15 27/72/15
f 124/186/15 27/72/15 29/187/15
f 126/188/15 29/187/15 31/189/15
f 128/190/15 31/189/15 33/191/15
f 130/192/15 33/191/15 35/76/15
f 132/193/15 35/76/15 37/75/15
f 132/193/15 39/33/15 134/194/15
f 134/194/15 41/32/15 136/195/15
f 138/196/15 41/32/15 43/78/15
f 140/197/15 43/78/15 45/198/15
f 140/197/15 49/35/15 142/22/15
f 48/164/113 141/199/116 143/165/113
f 116/181/15 23/200/15 118/182/15
f 144/62/42 11/15/9 9/201/42
f 78/92/125 61/202/126 77/93/127
f 130/203/128 14/204/129 12/205/128
f 48/34/22 45/198/50 44/77/50
f 143/165/6 147/206/41 145/8/6
f 36/207/49 39/33/20 37/75/49
f 129/88/60 152/208/130 131/168/130
f 30/209/19 29/187/46 28/71/46
f 133/174/131 150/210/132 135/175/132
f 135/175/132 149/211/133 137/177/133
f 20/212/45 23/200/17 21/69/45
f 75/104/134 60/213/135 59/49/36
f 136/214/136 15/215/137 134/216/137
f 74/105/138 57/48/35 73/39/27
f 140/217/139 4/218/140 138/219/140
f 79/116/141 64/85/57 63/50/37
f 136/214/136 4/218/140 2/220/136
f 66/42/30 65/84/56 81/95/142
f 142/64/43 6/221/139 140/222/139
f 79/116/141 62/223/143 78/92/125
f 128/224/12 12/205/128 10/17/12
f 76/107/144 61/202/126 60/213/135
f 134/216/137 14/225/129 132/226/129
f 42/79/51 41/32/21 40/227/21
f 146/7/5 160/228/3 115/4/3
f 34/167/48 33/229/18 32/28/18
f 131/168/130 151/230/131 133/171/131
f 24/25/16 27/231/47 25/232/16
f 139/56/40 149/211/133 148/233/40
f 75/104/134 58/234/145 74/105/138
f 47/235/23 19/70/44 46/23/23
f 157/236/146 158/237/146 161/238/146
f 150/239/146 151/240/146 161/238/146
f 158/237/146 159/241/146 161/238/146
f 151/240/146 152/242/146 161/238/146
f 159/241/146 160/243/146 161/238/146
f 152/242/146 153/244/146 161/238/146
f 1/245/146 145/246/146 161/238/146
f 160/243/146 1/245/146 161/238/146
f 153/244/146 154/247/146 161/238/146
f 145/246/146 147/248/146 161/238/146
f 154/247/146 155/249/146 161/238/146
f 147/248/146 148/250/146 161/238/146
f 155/249/146 156/251/146 161/238/146
f 148/250/146 149/252/146 161/238/146
f 156/251/146 157/236/146 161/238/146
f 149/252/146 150/239/146 161/238/146
f 121/1/1 119/52/2 158/2/2
f 115/4/3 160/228/3 159/5/4
f 146/7/5 143/165/6 145/8/6
f 120/10/7 17/67/7 16/11/8
f 114/13/9 116/253/10 13/14/10
f 126/16/11 128/224/12 10/17/12
f 124/19/13 5/254/13 3/20/14
f 142/22/15 49/35/15 46/23/15
f 24/25/16 25/232/16 23/26/17
f 32/28/18 33/229/18 31/29/19
f 38/31/20 40/227/21 41/32/21
f 48/34/22 47/235/23 46/23/23
f 71/36/24 55/82/54 54/37/25
f 73/39/27 57/48/35 56/40/28
f 66/42/30 67/87/59 51/43/31
f 109/45/33 93/91/33 92/46/34
f 63/50/37 64/85/57 65/84/56
f 65/84/56 50/44/32 63/50/37
f 50/44/32 51/43/31 63/50/37
f 51/43/31 52/98/67 53/81/53
f 53/81/53 54/37/25 55/82/54
f 55/82/54 56/40/28 57/48/35
f 57/48/35 58/234/145 59/49/36
f 59/49/36 60/213/135 61/202/126
f 61/202/126 62/223/143 59/49/36
f 62/223/143 63/50/37 59/49/36
f 51/43/31 53/81/53 63/50/37
f 53/81/53 55/82/54 63/50/37
f 55/82/54 57/48/35 63/50/37
f 117/51/4 159/255/4 158/2/2
f 125/53/38 123/59/39 156/54/39
f 139/56/40 148/233/40 147/57/41
f 121/1/1 157/3/1 156/54/39
f 116/60/10 118/12/8 16/11/8
f 144/62/42 9/201/42 8/63/43
f 126/16/11 7/18/11 5/65/13
f 122/21/14 3/20/14 17/67/7
f 18/68/44 20/212/45 21/69/45
f 28/71/46 29/187/46 27/72/47
f 34/74/48 36/207/49 37/75/49
f 44/77/50 45/198/50 43/78/51
f 69/80/52 70/38/26 54/37/25
f 72/41/29 56/40/28 55/82/54
f 80/83/55 81/95/142 65/84/56
f 68/86/58 52/98/67 51/43/31
f 129/88/60 127/161/61 154/89/61
f 93/91/62 94/97/63 78/92/63
f 82/94/64 66/42/64 81/95/65
f 109/45/33 110/159/66 94/97/66
f 68/86/58 69/80/52 53/81/53
f 90/99/68 74/105/68 73/39/69
f 112/101/70 96/115/70 95/102/71
f 90/99/68 91/106/72 75/104/72
f 91/106/72 92/46/73 76/107/73
f 98/108/74 82/94/74 97/96/75
f 92/46/73 93/91/62 77/93/62
f 106/110/76 90/99/76 89/100/77
f 86/112/78 70/38/78 69/80/79
f 106/110/76 107/114/80 91/106/80
f 95/102/81 79/116/81 78/92/63
f 107/114/80 108/47/34 92/46/34
f 96/115/82 80/83/82 79/116/81
f 9/117/83 11/147/84 98/118/84
f 98/108/74 99/122/85 83/120/85
f 86/112/78 87/123/86 71/36/86
f 100/121/87 84/124/87 83/120/85
f 87/123/86 88/125/88 72/41/88
f 100/121/87 101/126/89 85/113/89
f 88/125/88 89/100/69 73/39/69
f 101/126/89 102/128/90 86/112/90
f 97/96/65 81/95/65 80/83/82
f 103/127/91 87/123/91 86/112/90
f 104/129/92 88/125/92 87/123/91
f 83/120/93 67/87/93 66/42/64
f 84/124/94 68/86/94 67/87/93
f 104/129/92 105/111/77 89/100/77
f 84/124/94 85/113/79 69/80/79
f 113/109/75 97/96/75 96/115/70
f 18/130/95 47/256/96 146/7/96
f 2/131/97 109/140/97 108/132/98
f 3/134/99 102/145/99 101/135/100
f 8/137/101 9/117/83 113/119/83
f 4/139/102 110/149/102 109/140/97
f 12/141/103 106/151/103 105/142/104
f 3/134/99 5/153/105 103/144/105
f 13/146/106 99/155/106 98/118/84
f 6/148/107 111/156/107 110/149/102
f 12/141/103 14/157/108 107/150/108
f 7/152/109 104/158/109 103/144/105
f 13/146/106 16/180/110 100/154/110
f 6/148/107 8/137/101 112/138/101
f 14/157/108 15/133/98 108/132/98
f 7/152/109 10/143/104 105/142/104
f 111/103/71 95/102/71 94/97/66
f 144/24/15 46/23/15 19/70/15
f 127/161/111 30/30/111 28/162/112
f 146/7/96 47/256/96 48/164/113
f 129/88/114 32/28/114 30/30/111
f 127/161/61 125/163/38 155/166/38
f 34/167/115 32/28/114 129/88/114
f 44/169/116 42/178/117 139/56/117
f 20/170/118 18/130/95 115/4/95
f 133/171/119 36/257/119 34/167/115
f 119/52/120 22/27/120 20/172/118
f 38/173/121 36/258/119 133/174/119
f 24/25/122 22/27/120 119/52/120
f 40/176/123 38/173/121 135/175/121
f 123/59/124 26/259/124 24/25/122
f 42/178/117 40/176/123 137/177/123
f 28/179/112 26/259/124 123/59/124
f 16/180/110 17/136/100 101/135/100
f 114/160/15 19/70/15 21/69/15
f 118/182/15 23/200/15 25/183/15
f 122/185/15 120/184/15 25/183/15
f 124/186/15 122/185/15 27/72/15
f 126/188/15 124/186/15 29/187/15
f 128/190/15 126/188/15 31/189/15
f 130/192/15 128/190/15 33/191/15
f 132/193/15 130/192/15 35/76/15
f 132/193/15 37/75/15 39/33/15
f 134/194/15 39/33/15 41/32/15
f 138/196/15 136/195/15 41/32/15
f 140/197/15 138/196/15 43/78/15
f 140/197/15 45/198/15 49/35/15
f 48/164/113 44/260/116 141/199/116
f 116/181/15 21/69/15 23/200/15
f 144/62/42 114/13/9 11/15/9
f 78/92/125 62/223/143 61/202/126
f 130/203/128 132/261/129 14/204/129
f 48/34/22 49/35/22 45/198/50
f 143/165/6 141/199/41 147/206/41
f 36/207/49 38/31/20 39/33/20
f 129/88/60 153/90/60 152/208/130
f 30/209/19 31/189/19 29/187/46
f 133/174/131 151/262/131 150/210/132
f 135/175/132 150/210/132 149/211/133
f 20/212/45 22/263/17 23/200/17
f 75/104/134 76/107/144 60/213/135
f 136/214/136 2/220/136 15/215/137
f 74/105/138 58/234/145 57/48/35
f 140/217/139 6/264/139 4/218/140
f 79/116/141 80/83/55 64/85/57
f 136/214/136 138/219/140 4/218/140
f 66/42/30 50/44/32 65/84/56
f 142/64/43 8/63/43 6/221/139
f 79/116/141 63/50/37 62/223/143
f 128/224/12 130/203/128 12/205/128
f 76/107/144 77/93/127 61/202/126
f 134/216/137 15/215/137 14/225/129
f 42/79/51 43/78/51 41/32/21
f 146/7/5 1/9/5 160/228/3
f 34/167/48 35/265/48 33/229/18
f 131/168/130 152/208/130 151/230/131
f 24/25/16 26/259/47 27/231/47
f 139/56/40 137/177/133 149/211/133
f 75/104/134 59/49/36 58/234/145
f 47/235/23 18/68/44 19/70/44
